<svg width="12" height="12" viewBox="0 0 12 12" fill="none" xmlns="http://www.w3.org/2000/svg">
<path d="M5.9655 1.02884C6.02742 0.951364 6.10409 0.886936 6.19108 0.839288C6.27807 0.791639 6.37364 0.761718 6.47227 0.751255C6.5709 0.740792 6.67062 0.749996 6.76567 0.778334C6.86072 0.806671 6.9492 0.85358 7.026 0.916344L9.4725 2.91434C9.60704 3.0242 9.69929 3.17734 9.73348 3.34764C9.76768 3.51793 9.74171 3.69482 9.66 3.84809C9.44611 3.78272 9.22366 3.74961 9 3.74984H8.775L8.9985 3.49484L7.71 2.44259L6.64725 3.75059H5.6805L7.12875 1.96859L6.55125 1.49684L4.75275 3.74984H3.79275L5.9655 1.02884ZM7.875 7.49984C7.77554 7.49984 7.68016 7.53935 7.60983 7.60968C7.53951 7.68 7.5 7.77539 7.5 7.87484C7.5 7.9743 7.53951 8.06968 7.60983 8.14001C7.68016 8.21033 7.77554 8.24984 7.875 8.24984H8.625C8.72446 8.24984 8.81984 8.21033 8.89017 8.14001C8.96049 8.06968 9 7.9743 9 7.87484C9 7.77539 8.96049 7.68 8.89017 7.60968C8.81984 7.53935 8.72446 7.49984 8.625 7.49984H7.875ZM2.25 4.12484C2.25 4.02539 2.28951 3.93001 2.35984 3.85968C2.43016 3.78935 2.52554 3.74984 2.625 3.74984H3.0435L3.63975 2.99984H2.625C2.32663 2.99984 2.04048 3.11837 1.8295 3.32935C1.61853 3.54033 1.5 3.82648 1.5 4.12484V8.62484C1.5 9.12212 1.69754 9.59904 2.04917 9.95067C2.40081 10.3023 2.87772 10.4998 3.375 10.4998H9C9.39782 10.4998 9.77936 10.3418 10.0607 10.0605C10.342 9.7792 10.5 9.39767 10.5 8.99984V5.99984C10.5 5.60202 10.342 5.22049 10.0607 4.93918C9.77936 4.65788 9.39782 4.49984 9 4.49984H2.625C2.52554 4.49984 2.43016 4.46033 2.35984 4.39001C2.28951 4.31968 2.25 4.2243 2.25 4.12484ZM2.25 8.62484V5.18609C2.368 5.22809 2.493 5.24934 2.625 5.24984H9C9.19891 5.24984 9.38968 5.32886 9.53033 5.46951C9.67098 5.61017 9.75 5.80093 9.75 5.99984V8.99984C9.75 9.19876 9.67098 9.38952 9.53033 9.53017C9.38968 9.67083 9.19891 9.74984 9 9.74984H3.375C3.07663 9.74984 2.79048 9.63132 2.5795 9.42034C2.36853 9.20936 2.25 8.92321 2.25 8.62484Z" fill="black"/>
</svg>
