<svg width="12" height="12" viewBox="0 0 12 12" fill="none" xmlns="http://www.w3.org/2000/svg">
<path d="M7 7.5V8.5C7 8.63261 6.94732 8.75979 6.85355 8.85355C6.75979 8.94732 6.63261 9 6.5 9H3L1.5 10.5V5.5C1.5 5.36739 1.55268 5.24021 1.64645 5.14645C1.74021 5.05268 1.86739 5 2 5H3M10.5 7L9 5.5H5.5C5.36739 5.5 5.24021 5.44732 5.14645 5.35355C5.05268 5.25979 5 5.13261 5 5V2C5 1.86739 5.05268 1.74021 5.14645 1.64645C5.24021 1.55268 5.36739 1.5 5.5 1.5H10C10.1326 1.5 10.2598 1.55268 10.3536 1.64645C10.4473 1.74021 10.5 1.86739 10.5 2V7Z" stroke="black" stroke-width="0.75" stroke-linecap="round" stroke-linejoin="round"/>
</svg>
