<svg width="12" height="12" viewBox="0 0 12 12" fill="none" xmlns="http://www.w3.org/2000/svg">
<path d="M7.5 9.50001C7.5 9.89783 7.34197 10.2794 7.06066 10.5607C6.77936 10.842 6.39783 11 6 11C5.60218 11 5.22065 10.842 4.93934 10.5607C4.65804 10.2794 4.5 9.89783 4.5 9.50001M6.3605 2.50151L5.6275 2.50001C3.9555 2.49601 2.504 3.85451 2.4925 5.50001V7.39501C2.4925 7.79001 2.4425 8.17551 2.227 8.50401L2.0835 8.72301C1.865 9.05501 2.1 9.50001 2.4925 9.50001H9.5075C9.9 9.50001 10.1345 9.05501 9.9165 8.72301L9.773 8.50401C9.558 8.17551 9.5075 7.78951 9.5075 7.39451V5.50051C9.4875 3.85451 8.0325 2.50551 6.3605 2.50151Z" stroke="black" stroke-width="0.75" stroke-linecap="round" stroke-linejoin="round"/>
<path d="M6 1C6.26522 1 6.51957 1.10536 6.70711 1.29289C6.89464 1.48043 7 1.73478 7 2V2.5H5V2C5 1.73478 5.10536 1.48043 5.29289 1.29289C5.48043 1.10536 5.73478 1 6 1Z" stroke="black" stroke-width="0.75" stroke-linecap="round" stroke-linejoin="round"/>
</svg>
