<svg width="12" height="12" viewBox="0 0 12 12" fill="none" xmlns="http://www.w3.org/2000/svg">
<path d="M7.25 6C7.25 5.66848 7.1183 5.35054 6.88388 5.11612C6.64946 4.8817 6.33152 4.75 6 4.75C5.66848 4.75 5.35054 4.8817 5.11612 5.11612C4.8817 5.35054 4.75 5.66848 4.75 6C4.75 6.33152 4.8817 6.64946 5.11612 6.88388C5.35054 7.1183 5.66848 7.25 6 7.25C6.33152 7.25 6.64946 7.1183 6.88388 6.88388C7.1183 6.64946 7.25 6.33152 7.25 6Z" stroke="black" stroke-width="0.75" stroke-linecap="round" stroke-linejoin="round"/>
<path d="M5 2.44506C5 3.16256 4.099 3.71206 3.463 3.34106C2.3275 2.72956 1.465 4.41356 2.468 5.08906C3.08 5.44606 3.0805 6.52906 2.468 6.88656C1.3865 7.54206 2.3735 9.21656 3.463 8.62956C4.1525 8.22756 5.0005 8.88556 5.0005 9.60756C5.0005 10.8131 6.9905 10.7821 6.9905 9.60756C6.9905 8.87206 7.8255 8.22006 8.5275 8.62956C9.6475 9.23306 10.6115 7.47356 9.5225 6.88656C8.9095 6.52906 8.91 5.44156 9.5225 5.08456C10.604 4.42906 9.6175 2.75456 8.5275 3.34106C7.906 3.70406 6.991 3.15956 6.9905 2.44506C6.9905 1.16506 5.0005 1.20506 5.0005 2.44506" stroke="black" stroke-width="0.75" stroke-linecap="round" stroke-linejoin="round"/>
</svg>
