<svg width="12" height="12" viewBox="0 0 12 12" fill="none" xmlns="http://www.w3.org/2000/svg">
<path d="M8.5 9.74995C8.5 8.92145 7.3805 8.24995 6 8.24995C4.6195 8.24995 3.5 8.92145 3.5 9.74995M10.5 8.24995C10.5 7.63495 9.883 7.10645 9 6.87495M1.5 8.24995C1.5 7.63495 2.117 7.10645 3 6.87495M9 4.86795C9.14813 4.737 9.26891 4.57805 9.35539 4.40025C9.44188 4.22245 9.49235 4.02931 9.50393 3.83193C9.5155 3.63455 9.48794 3.43684 9.42282 3.25015C9.35771 3.06346 9.25633 2.89149 9.12452 2.74412C8.9927 2.59676 8.83306 2.4769 8.65476 2.39146C8.47646 2.30601 8.28303 2.25665 8.08559 2.24623C7.88814 2.2358 7.69059 2.26451 7.50428 2.33071C7.31798 2.39691 7.1466 2.49929 7 2.63195M3 4.86795C2.70615 4.60203 2.52948 4.23062 2.50858 3.83485C2.48769 3.43909 2.62426 3.05114 2.88848 2.75575C3.15269 2.46036 3.52307 2.28153 3.91871 2.25834C4.31434 2.23514 4.70308 2.36946 5 2.63195M6 6.74995C5.60218 6.74995 5.22064 6.59192 4.93934 6.31061C4.65804 6.02931 4.5 5.64778 4.5 5.24995C4.5 4.85213 4.65804 4.4706 4.93934 4.18929C5.22064 3.90799 5.60218 3.74995 6 3.74995C6.39782 3.74995 6.77936 3.90799 7.06066 4.18929C7.34196 4.4706 7.5 4.85213 7.5 5.24995C7.5 5.64778 7.34196 6.02931 7.06066 6.31061C6.77936 6.59192 6.39782 6.74995 6 6.74995Z" stroke="black" stroke-width="0.75" stroke-linecap="round" stroke-linejoin="round"/>
</svg>
