<svg width="12" height="12" viewBox="0 0 12 12" fill="none" xmlns="http://www.w3.org/2000/svg">
<path d="M5.5 4.49973H2.5C2.36739 4.49973 2.24021 4.55241 2.14645 4.64618C2.05268 4.73994 2 4.86712 2 4.99973V6.99973C2 7.13234 2.05268 7.25951 2.14645 7.35328C2.24021 7.44705 2.36739 7.49973 2.5 7.49973H5.5M5.5 4.49973V7.49973M5.5 4.49973L8.2095 2.56473C8.2842 2.51141 8.37213 2.47967 8.46366 2.473C8.55519 2.46633 8.6468 2.48498 8.72843 2.52691C8.81007 2.56884 8.87859 2.63243 8.92649 2.71071C8.9744 2.789 8.99983 2.87895 9 2.97073V9.02773C9.00001 9.11959 8.97471 9.20968 8.92688 9.2881C8.87906 9.36653 8.81055 9.43027 8.72888 9.47232C8.64721 9.51437 8.55553 9.5331 8.46391 9.52647C8.37229 9.51984 8.28427 9.4881 8.2095 9.43473L5.5 7.49973M9 7.49973C9.39782 7.49973 9.77936 7.34169 10.0607 7.06039C10.342 6.77908 10.5 6.39755 10.5 5.99973C10.5 5.6019 10.342 5.22037 10.0607 4.93907C9.77936 4.65776 9.39782 4.49973 9 4.49973M3 7.49973H4.5V9.99973H3V7.49973Z" stroke="black" stroke-width="0.75" stroke-linecap="round" stroke-linejoin="round"/>
</svg>
