<svg width="12" height="12" viewBox="0 0 12 12" fill="none" xmlns="http://www.w3.org/2000/svg">
<path d="M8.5 5.40268C8.5 5.22968 8.5 5.14318 8.526 5.06618C8.6015 4.84218 8.801 4.75568 9.001 4.66468C9.225 4.56218 9.337 4.51118 9.4485 4.50218C9.5745 4.49218 9.701 4.51918 9.809 4.57968C9.952 4.65968 10.052 4.81268 10.154 4.93668C10.6255 5.50968 10.8615 5.79618 10.9475 6.11168C11.0175 6.36668 11.0175 6.63368 10.9475 6.88818C10.822 7.34918 10.4245 7.73518 10.13 8.09318C9.9795 8.27568 9.904 8.36718 9.809 8.42068C9.69914 8.4816 9.57369 8.50858 9.4485 8.49818C9.337 8.48918 9.225 8.43818 9.0005 8.33568C8.8005 8.24468 8.6015 8.15818 8.526 7.93418C8.5 7.85718 8.5 7.77068 8.5 7.59768V5.40268ZM3.5 5.40268C3.5 5.18468 3.494 4.98918 3.318 4.83618C3.254 4.78068 3.169 4.74218 2.9995 4.66468C2.775 4.56268 2.663 4.51118 2.5515 4.50218C2.218 4.47518 2.0385 4.70318 1.8465 4.93718C1.3745 5.50968 1.1385 5.79618 1.052 6.11218C0.982402 6.36634 0.982402 6.63453 1.052 6.88868C1.178 7.34918 1.576 7.73568 1.87 8.09318C2.0555 8.31818 2.233 8.52368 2.5515 8.49818C2.663 8.48918 2.775 8.43818 2.9995 8.33568C3.1695 8.25868 3.254 8.21968 3.318 8.16418C3.494 8.01118 3.5 7.81568 3.5 7.59818V5.40268Z" stroke="black" stroke-width="0.75" stroke-linecap="round" stroke-linejoin="round"/>
<path d="M2.5 4.5C2.5 2.843 4.067 1.5 6 1.5C7.933 1.5 9.5 2.843 9.5 4.5M9.5 8.5V8.9C9.5 9.7835 8.605 10.5 7.5 10.5H6.5" stroke="black" stroke-width="0.75" stroke-linecap="round" stroke-linejoin="round"/>
</svg>
