<svg width="12" height="12" viewBox="0 0 12 12" fill="none" xmlns="http://www.w3.org/2000/svg">
<g clip-path="url(#clip0_126_443)">
<path d="M1 9C1 8.23 1 7.845 1.1735 7.562C1.2705 7.4035 1.4035 7.2705 1.562 7.1735C1.8445 7 2.23 7 3 7C3.77 7 4.155 7 4.438 7.1735C4.5965 7.2705 4.7295 7.4035 4.8265 7.562C5 7.8445 5 8.23 5 9C5 9.77 5 10.155 4.8265 10.4385C4.7295 10.5965 4.5965 10.7295 4.438 10.8265C4.1555 11 3.77 11 3 11C2.23 11 1.845 11 1.562 10.8265C1.40368 10.7297 1.27054 10.5967 1.1735 10.4385C1 10.155 1 9.77 1 9ZM7 9C7 8.23 7 7.845 7.1735 7.562C7.2705 7.4035 7.4035 7.2705 7.562 7.1735C7.8445 7 8.23 7 9 7C9.77 7 10.155 7 10.4385 7.1735C10.5965 7.2705 10.7295 7.4035 10.8265 7.562C11 7.8445 11 8.23 11 9C11 9.77 11 10.155 10.8265 10.4385C10.7295 10.5965 10.5965 10.7295 10.4385 10.8265C10.155 11 9.77 11 9 11C8.23 11 7.845 11 7.562 10.8265C7.40367 10.7297 7.27054 10.5967 7.1735 10.4385C7 10.155 7 9.77 7 9ZM1 3C1 2.23 1 1.845 1.1735 1.562C1.2705 1.4035 1.4035 1.2705 1.562 1.1735C1.8445 1 2.23 1 3 1C3.77 1 4.155 1 4.438 1.1735C4.5965 1.2705 4.7295 1.4035 4.8265 1.562C5 1.8445 5 2.23 5 3C5 3.77 5 4.155 4.8265 4.438C4.7295 4.5965 4.5965 4.7295 4.438 4.8265C4.1555 5 3.77 5 3 5C2.23 5 1.845 5 1.562 4.8265C1.40362 4.72952 1.27048 4.59638 1.1735 4.438C1 4.1555 1 3.77 1 3ZM7 3C7 2.23 7 1.845 7.1735 1.562C7.2705 1.4035 7.4035 1.2705 7.562 1.1735C7.8445 1 8.23 1 9 1C9.77 1 10.155 1 10.4385 1.1735C10.5965 1.2705 10.7295 1.4035 10.8265 1.562C11 1.8445 11 2.23 11 3C11 3.77 11 4.155 10.8265 4.438C10.7295 4.5965 10.5965 4.7295 10.4385 4.8265C10.155 5 9.77 5 9 5C8.23 5 7.845 5 7.562 4.8265C7.40362 4.72952 7.27048 4.59638 7.1735 4.438C7 4.1555 7 3.77 7 3Z" stroke="black" stroke-width="0.75" stroke-linecap="round" stroke-linejoin="round"/>
</g>
<defs>
<clipPath id="clip0_126_443">
<rect width="12" height="12" fill="white"/>
</clipPath>
</defs>
</svg>
