<svg width="12" height="12" viewBox="0 0 12 12" fill="none" xmlns="http://www.w3.org/2000/svg">
<g clip-path="url(#clip0_126_465)">
<path d="M7.503 9.27512C7.87755 9.55005 8.33613 9.686 8.8 9.65963C8.81631 9.38231 8.77318 9.1047 8.6735 8.8454C8.57381 8.58611 8.41988 8.3511 8.222 8.15613C8.0325 7.96813 7.6335 7.57812 7.6335 7.57812C8.22935 7.87325 8.90542 7.96522 9.55846 7.84C10.2115 7.71477 10.8056 7.37923 11.25 6.88462C10.9628 6.56618 10.6118 6.31166 10.2199 6.13758C9.82798 5.9635 9.40384 5.87374 8.975 5.87413C8.66 5.87913 8.347 5.93262 8.048 6.03412C8.39624 5.84928 8.71672 5.61633 9 5.34212C9.7169 4.65195 10.1457 3.71578 10.2 2.72212C9.20089 2.77456 8.25771 3.1995 7.5565 3.91313C7.279 4.18813 6.8185 4.76612 6.8185 4.76612C7.04569 4.30881 7.16807 3.80659 7.17672 3.29602C7.18537 2.78545 7.08007 2.27938 6.8685 1.81463C6.66609 1.3658 6.36995 0.965503 6 0.640625C5.41287 1.15459 5.0175 1.85256 4.87854 2.62039C4.73958 3.38822 4.86525 4.18048 5.235 4.86762C4.98932 4.53483 4.72507 4.21616 4.4435 3.91313C3.74229 3.1995 2.7991 2.77456 1.8 2.72212C1.85432 3.71578 2.2831 4.65195 3 5.34212C3.28267 5.61618 3.60246 5.84912 3.95 6.03412C3.6515 5.93243 3.33882 5.87843 3.0235 5.87413C2.59491 5.87395 2.17106 5.96381 1.77942 6.13789C1.38777 6.31196 1.03706 6.56637 0.75 6.88462C1.03727 7.20298 1.38825 7.4574 1.78016 7.6314C2.17208 7.80539 2.59619 7.89507 3.025 7.89462C3.48367 7.84579 3.93437 7.73946 4.3665 7.57812C4.3665 7.57812 3.9665 7.96612 3.78 8.15312C3.58176 8.34793 3.42745 8.58285 3.32742 8.84216C3.22739 9.10146 3.18395 9.37916 3.2 9.65662C3.66091 9.6828 4.11669 9.54872 4.49 9.27713M6 8.75012V11.3751" stroke="black" stroke-width="0.75" stroke-linecap="round" stroke-linejoin="round"/>
</g>
<defs>
<clipPath id="clip0_126_465">
<rect width="12" height="12" fill="white"/>
</clipPath>
</defs>
</svg>
