<svg width="12" height="12" viewBox="0 0 12 12" fill="none" xmlns="http://www.w3.org/2000/svg">
<path d="M2.5 2.038C2.0125 2.086 1.6845 2.1945 1.4395 2.4395C1 2.8785 1 3.586 1 5V7C1 8.414 1 9.1215 1.4395 9.5605C1.6845 9.8055 2.0125 9.914 2.5 9.962M9.5 2.038C9.9875 2.086 10.3155 2.1945 10.5605 2.4395C11 2.8785 11 3.586 11 5V7C11 8.414 11 9.1215 10.5605 9.5605C10.3155 9.8055 9.9875 9.914 9.5 9.962M2.5 4C2.5 2.586 2.5 1.8785 2.9395 1.4395C3.3785 1 4.086 1 5.5 1H6.5C7.914 1 8.6215 1 9.0605 1.4395C9.5 1.8785 9.5 2.586 9.5 4V8C9.5 9.414 9.5 10.1215 9.0605 10.5605C8.6215 11 7.914 11 6.5 11H5.5C4.086 11 3.3785 11 2.9395 10.5605C2.5 10.1215 2.5 9.414 2.5 8V4Z" stroke="black" stroke-width="0.75"/>
<path d="M4.5 6.5H7.5M4.5 4.5H7.5M4.5 8.5H6" stroke="black" stroke-width="0.75" stroke-linecap="round"/>
</svg>
