<svg width="22" height="22" viewBox="0 0 22 22" fill="none" xmlns="http://www.w3.org/2000/svg">
<path d="M4.75 13.75H6.75M16.75 13.75V16.75C16.75 18.636 16.75 19.578 16.281 20.164C15.834 20.724 15.126 20.749 13.75 20.75M16.758 4.75H16.748M6.75 20.75H4.75C2.864 20.75 1.922 20.75 1.336 20.164C0.75 19.578 0.75 18.636 0.75 16.75V14.75C0.75 12.864 0.75 11.922 1.336 11.336C1.922 10.75 2.864 10.75 4.75 10.75H6.75C8.636 10.75 9.578 10.75 10.164 11.336C10.75 11.922 10.75 12.864 10.75 14.75V16.75C10.75 18.636 10.75 19.578 10.164 20.164C9.578 20.75 8.636 20.75 6.75 20.75ZM16.75 0.75C14.54 0.75 12.75 2.559 12.75 4.79C12.75 6.066 13.25 7.058 14.25 7.944C14.955 8.569 15.809 9.607 16.321 10.447C16.567 10.851 16.915 10.851 17.179 10.447C17.717 9.623 18.545 8.569 19.25 7.945C20.25 7.058 20.75 6.066 20.75 4.79C20.75 2.56 18.96 0.75 16.75 0.75Z" stroke="#212121" stroke-width="1.5" stroke-linecap="round" stroke-linejoin="round"/>
</svg>
